<?xml version="1.0" encoding="utf-8"?>
<!-- Generator: Adobe Illustrator 16.0.0, SVG Export Plug-In . SVG Version: 6.00 Build 0)  -->
<!DOCTYPE svg PUBLIC "-//W3C//DTD SVG 1.1//EN" "http://www.w3.org/Graphics/SVG/1.1/DTD/svg11.dtd">
<svg version="1.1" id="Layer_1" xmlns="http://www.w3.org/2000/svg" xmlns:xlink="http://www.w3.org/1999/xlink" x="0px" y="0px"
	 width="56.801px" height="43.181px" viewBox="0 0 56.801 43.181" enable-background="new 0 0 56.801 43.181" xml:space="preserve">
<g>
	<path fill="#FFFFFF" d="M30.18,38.922c-7.698,0-13.961-6.261-13.961-13.958c0-7.696,6.263-13.958,13.961-13.958
		c7.697,0,13.959,6.262,13.959,13.958C44.139,32.661,37.877,38.922,30.18,38.922z M30.18,12.61c-6.814,0-12.357,5.542-12.357,12.355
		c0,6.812,5.543,12.354,12.357,12.354c6.812,0,12.355-5.542,12.355-12.354C42.535,18.152,36.992,12.61,30.18,12.61z"/>
	<path fill="#FFFFFF" d="M30.18,35.623c-5.877,0-10.658-4.781-10.658-10.657c0-5.877,4.781-10.659,10.658-10.659
		c5.875,0,10.656,4.782,10.656,10.659C40.836,30.842,36.055,35.623,30.18,35.623z M30.18,15.91c-4.992,0-9.055,4.062-9.055,9.056
		c0,4.991,4.062,9.054,9.055,9.054c4.99,0,9.053-4.062,9.053-9.054C39.232,19.973,35.17,15.91,30.18,15.91z"/>
	<path fill="#FFFFFF" d="M56.637,43.456H1.439c-0.442,0-0.801-0.359-0.801-0.802V5.987c0-0.441,0.358-0.801,0.801-0.801h55.197
		c0.443,0,0.803,0.359,0.803,0.801v36.667C57.439,43.097,57.08,43.456,56.637,43.456z M2.241,41.853h53.595V6.789H2.241V41.853z"/>
	<path fill="#FFFFFF" d="M53.652,16.088h-9.297c-0.441,0-0.801-0.359-0.801-0.802V9.147c0-0.442,0.359-0.802,0.801-0.802h9.297
		c0.443,0,0.803,0.359,0.803,0.802v6.139C54.455,15.729,54.096,16.088,53.652,16.088z M45.158,14.484h7.693V9.948h-7.693V14.484z"/>
	<path fill="#FFFFFF" d="M13.882,13.668H8.248c-0.443,0-0.803-0.359-0.803-0.802V9.147c0-0.442,0.359-0.802,0.803-0.802h5.634
		c0.442,0,0.802,0.359,0.802,0.802v3.719C14.684,13.309,14.324,13.668,13.882,13.668z M9.049,12.064h4.031V9.948H9.049V12.064z"/>
	<path fill="#FFFFFF" d="M56.637,6.789H17.229c-0.442,0-0.802-0.357-0.802-0.802v-4.91c0-0.444,0.359-0.802,0.802-0.802h39.407
		c0.443,0,0.803,0.357,0.803,0.802v4.91C57.439,6.432,57.08,6.789,56.637,6.789z M18.031,5.187h37.805V1.878H18.031V5.187z"/>
	<path fill="#FFFFFF" d="M5.812,6.789H3.008c-0.443,0-0.802-0.357-0.802-0.802V2.13c0-0.444,0.358-0.802,0.802-0.802h2.805
		c0.443,0,0.803,0.357,0.803,0.802v3.857C6.615,6.432,6.256,6.789,5.812,6.789z M3.809,5.187h1.203V2.932H3.809V5.187z"/>
	<path fill="#FFFFFF" d="M14.938,6.789H7.744c-0.443,0-0.803-0.357-0.803-0.802V2.13c0-0.444,0.359-0.802,0.803-0.802h7.193
		c0.443,0,0.803,0.357,0.803,0.802v3.857C15.738,6.432,15.381,6.789,14.938,6.789z M8.545,5.187h5.592V2.932H8.545V5.187
		L8.545,5.187z"/>
	<path fill="#FFFFFF" d="M12.279,27.688c-1.341,0-2.432-1.089-2.432-2.428c0-1.34,1.091-2.431,2.432-2.431
		c1.34,0,2.431,1.091,2.431,2.431C14.71,26.599,13.619,27.688,12.279,27.688z M12.279,24.433c-0.457,0-0.829,0.371-0.829,0.827
		c0,0.455,0.372,0.825,0.829,0.825s0.827-0.37,0.827-0.825C13.106,24.804,12.736,24.433,12.279,24.433z"/>
	<path fill="#FFFFFF" d="M56.637,18.545H41.283c-0.441,0-0.801-0.359-0.801-0.802s0.359-0.802,0.801-0.802h15.354
		c0.443,0,0.803,0.359,0.803,0.802S57.08,18.545,56.637,18.545z"/>
	<path fill="#FFFFFF" d="M18.645,18.545H1.801c-0.443,0-0.803-0.359-0.803-0.802s0.359-0.802,0.803-0.802h16.844
		c0.442,0,0.802,0.359,0.802,0.802S19.087,18.545,18.645,18.545z"/>
</g>
</svg>
