<?xml version="1.0" encoding="utf-8"?>
<!-- Generator: Adobe Illustrator 16.0.0, SVG Export Plug-In . SVG Version: 6.00 Build 0)  -->
<!DOCTYPE svg PUBLIC "-//W3C//DTD SVG 1.1//EN" "http://www.w3.org/Graphics/SVG/1.1/DTD/svg11.dtd">
<svg version="1.1" id="Layer_1" xmlns="http://www.w3.org/2000/svg" xmlns:xlink="http://www.w3.org/1999/xlink" x="0px" y="0px"
	 width="56.801px" height="43.181px" viewBox="0 0 56.801 43.181" enable-background="new 0 0 56.801 43.181" xml:space="preserve">
<g>
	<path fill="#212B3D" d="M29.541,39.114c-7.698,0-13.961-6.261-13.961-13.958c0-7.696,6.263-13.958,13.961-13.958
		c7.697,0,13.959,6.262,13.959,13.958C43.5,32.854,37.238,39.114,29.541,39.114z M29.541,12.803
		c-6.814,0-12.357,5.542-12.357,12.355c0,6.812,5.543,12.354,12.357,12.354c6.812,0,12.355-5.542,12.355-12.354
		C41.896,18.345,36.354,12.803,29.541,12.803z"/>
	<path fill="#212B3D" d="M29.541,35.815c-5.877,0-10.658-4.781-10.658-10.657c0-5.877,4.781-10.659,10.658-10.659
		c5.875,0,10.656,4.782,10.656,10.659C40.197,31.034,35.416,35.815,29.541,35.815z M29.541,16.103c-4.992,0-9.055,4.062-9.055,9.056
		c0,4.991,4.062,9.054,9.055,9.054c4.99,0,9.053-4.062,9.053-9.054C38.594,20.165,34.531,16.103,29.541,16.103z"/>
	<path fill="#212B3D" d="M55.998,43.648H0.801C0.358,43.648,0,43.289,0,42.847V6.18c0-0.441,0.358-0.801,0.801-0.801h55.197
		c0.443,0,0.803,0.359,0.803,0.801v36.667C56.801,43.289,56.441,43.648,55.998,43.648z M1.603,42.045h53.595V6.981H1.603V42.045z"/>
	<path fill="#212B3D" d="M53.014,16.28h-9.297c-0.441,0-0.801-0.359-0.801-0.802V9.34c0-0.442,0.359-0.802,0.801-0.802h9.297
		c0.443,0,0.803,0.359,0.803,0.802v6.139C53.816,15.921,53.457,16.28,53.014,16.28z M44.52,14.677h7.693v-4.536H44.52V14.677z"/>
	<path fill="#212B3D" d="M13.243,13.86H7.609c-0.443,0-0.803-0.359-0.803-0.802V9.34c0-0.442,0.359-0.802,0.803-0.802h5.634
		c0.442,0,0.802,0.359,0.802,0.802v3.719C14.045,13.501,13.686,13.86,13.243,13.86z M8.41,12.257h4.031v-2.116H8.41V12.257z"/>
	<path fill="#212B3D" d="M55.998,6.981H16.591c-0.442,0-0.802-0.357-0.802-0.802V1.27c0-0.444,0.359-0.802,0.802-0.802h39.407
		c0.443,0,0.803,0.357,0.803,0.802v4.91C56.801,6.624,56.441,6.981,55.998,6.981z M17.393,5.379h37.805V2.07H17.393V5.379z"/>
	<path fill="#212B3D" d="M5.174,6.981H2.369c-0.443,0-0.802-0.357-0.802-0.802V2.322c0-0.444,0.358-0.802,0.802-0.802h2.805
		c0.443,0,0.803,0.357,0.803,0.802V6.18C5.977,6.624,5.617,6.981,5.174,6.981z M3.17,5.379h1.203V3.124H3.17V5.379z"/>
	<path fill="#212B3D" d="M14.299,6.981H7.105c-0.443,0-0.803-0.357-0.803-0.802V2.322c0-0.444,0.359-0.802,0.803-0.802h7.193
		c0.443,0,0.803,0.357,0.803,0.802V6.18C15.1,6.624,14.742,6.981,14.299,6.981z M7.906,5.379h5.592V3.124H7.906V5.379L7.906,5.379z"
		/>
	<path fill="#212B3D" d="M11.641,27.88c-1.341,0-2.432-1.089-2.432-2.428c0-1.34,1.091-2.431,2.432-2.431
		c1.34,0,2.431,1.091,2.431,2.431C14.071,26.791,12.98,27.88,11.641,27.88z M11.641,24.625c-0.457,0-0.829,0.371-0.829,0.827
		c0,0.455,0.372,0.825,0.829,0.825s0.827-0.37,0.827-0.825C12.468,24.996,12.098,24.625,11.641,24.625z"/>
	<path fill="#212B3D" d="M55.998,18.737H40.645c-0.441,0-0.801-0.359-0.801-0.802s0.359-0.802,0.801-0.802h15.354
		c0.443,0,0.803,0.359,0.803,0.802S56.441,18.737,55.998,18.737z"/>
	<path fill="#212B3D" d="M18.006,18.737H1.162c-0.443,0-0.803-0.359-0.803-0.802s0.359-0.802,0.803-0.802h16.844
		c0.442,0,0.802,0.359,0.802,0.802S18.448,18.737,18.006,18.737z"/>
</g>
</svg>
