<?xml version="1.0" encoding="utf-8"?>
<!-- Generator: Adobe Illustrator 16.0.0, SVG Export Plug-In . SVG Version: 6.00 Build 0)  -->
<!DOCTYPE svg PUBLIC "-//W3C//DTD SVG 1.1//EN" "http://www.w3.org/Graphics/SVG/1.1/DTD/svg11.dtd">
<svg version="1.1" id="Layer_1" xmlns="http://www.w3.org/2000/svg" xmlns:xlink="http://www.w3.org/1999/xlink" x="0px" y="0px"
	 width="24.578px" height="27.746px" viewBox="0 0 24.578 27.746" enable-background="new 0 0 24.578 27.746" xml:space="preserve">
<g>
	<rect x="5.201" y="4.757" fill="#FFFFFF" width="2.379" height="5.549"/>
	<path fill="#FFFFFF" d="M7.58,2.477c0,0.821-0.533,1.487-1.189,1.487S5.201,3.298,5.201,2.477C5.201,1.656,6.391,0,6.391,0
		S7.58,1.656,7.58,2.477z"/>
	<rect x="17.094" y="4.757" fill="#FFFFFF" width="2.377" height="5.549"/>
	<path fill="#FFFFFF" d="M19.471,2.477c0,0.821-0.531,1.487-1.188,1.487s-1.188-0.666-1.188-1.487c0-0.82,1.188-2.477,1.188-2.477
		S19.471,1.656,19.471,2.477z"/>
	<rect x="11.1" y="4.757" fill="#FFFFFF" width="2.378" height="5.549"/>
	<path fill="#FFFFFF" d="M13.478,2.477c0,0.821-0.532,1.487-1.188,1.487S11.1,3.298,11.1,2.477C11.1,1.656,12.289,0,12.289,0
		S13.478,1.656,13.478,2.477z"/>
	<g>
		<path fill="#FFFFFF" d="M21.725,20.053c-0.651-0.65-1.326-1.326-1.966-1.326s-1.313,0.676-1.966,1.326
			c-0.678,0.676-1.377,1.377-2.086,1.377c-0.71,0-1.41-0.701-2.087-1.377c-0.651-0.65-1.325-1.326-1.966-1.326
			s-1.314,0.676-1.966,1.326c-0.677,0.676-1.377,1.377-2.087,1.377c-0.709,0-1.408-0.701-2.086-1.377
			c-0.65-0.65-1.326-1.326-1.965-1.326c-0.502,0-1.025,0.416-1.541,0.908l0.865,5.41c0,1.486,1.215,2.701,2.701,2.701h13.508
			c1.485,0,2.701-1.215,2.701-2.701l0.734-4.24C22.252,20.579,21.986,20.314,21.725,20.053z"/>
	</g>
	<g>
		<path fill="#FFFFFF" d="M1.463,18.666c0.678-0.674,1.377-1.375,2.087-1.375c0.711,0,1.409,0.701,2.085,1.375
			c0.652,0.652,1.327,1.328,1.967,1.328c0.641,0,1.314-0.676,1.967-1.328c0.677-0.674,1.375-1.375,2.086-1.375
			s1.409,0.701,2.086,1.375c0.651,0.652,1.325,1.328,1.967,1.328c0.64,0,1.314-0.676,1.966-1.328
			c0.676-0.674,1.375-1.375,2.085-1.375c0.711,0,1.41,0.701,2.087,1.375c0.651,0.652,1.325,1.328,1.966,1.328
			c0.004,0,0.007,0,0.01-0.002C24.943,18.988,24.486,14,24.486,14c0-1.486-1.215-2.702-2.702-2.702H2.875
			c-1.486,0-2.701,1.216-2.701,2.702c0,0-0.66,4.853,0.592,5.336C1.057,19.448,1.232,18.898,1.463,18.666z"/>
	</g>
</g>
</svg>
