<?xml version="1.0" encoding="utf-8"?>
<!-- Generator: Adobe Illustrator 16.0.0, SVG Export Plug-In . SVG Version: 6.00 Build 0)  -->
<!DOCTYPE svg PUBLIC "-//W3C//DTD SVG 1.1//EN" "http://www.w3.org/Graphics/SVG/1.1/DTD/svg11.dtd">
<svg version="1.1" id="Layer_1" xmlns="http://www.w3.org/2000/svg" xmlns:xlink="http://www.w3.org/1999/xlink" x="0px" y="0px"
	 width="24.011px" height="22.037px" viewBox="0 0 24.011 22.037" enable-background="new 0 0 24.011 22.037" xml:space="preserve">
<g>
	<path fill="#FFFFFF" d="M23.859,8.256L12.209,0.101c-0.123-0.087-0.287-0.087-0.41,0L0.152,8.256
		c-0.077,0.055-0.13,0.137-0.146,0.23C-0.01,8.58,0.01,8.676,0.065,8.753l1.586,2.266c0.069,0.1,0.181,0.152,0.294,0.152
		c0.07,0,0.142-0.021,0.204-0.065l9.856-6.902l9.857,6.902c0.162,0.114,0.385,0.074,0.498-0.087l1.586-2.266
		c0.055-0.077,0.076-0.173,0.059-0.267C23.99,8.394,23.937,8.311,23.859,8.256z"/>
	<path fill="#FFFFFF" d="M20.964,11.881L12.21,5.75c-0.123-0.086-0.287-0.086-0.41,0L3,11.913c-0.095,0.066-0.152,0.177-0.152,0.293
		v9.474c0,0.197,0.16,0.357,0.358,0.357H9.33c0.197,0,0.357-0.16,0.357-0.357v-8.256h4.639v8.256c0,0.197,0.16,0.357,0.357,0.357
		h6.077c0.197,0,0.356-0.16,0.356-0.357v-9.506C21.117,12.057,21.06,11.947,20.964,11.881z"/>
	<path fill="#FFFFFF" d="M17.785,2.78l2.74,1.919c0.062,0.042,0.133,0.064,0.205,0.064c0.057,0,0.113-0.014,0.165-0.04
		c0.118-0.062,0.192-0.185,0.192-0.317V0.357C21.087,0.16,20.927,0,20.73,0h-2.74c-0.197,0-0.357,0.16-0.357,0.357v2.131
		C17.632,2.604,17.689,2.713,17.785,2.78z"/>
</g>
</svg>
