<?xml version="1.0" encoding="utf-8"?>
<!-- Generator: Adobe Illustrator 16.0.0, SVG Export Plug-In . SVG Version: 6.00 Build 0)  -->
<!DOCTYPE svg PUBLIC "-//W3C//DTD SVG 1.1//EN" "http://www.w3.org/Graphics/SVG/1.1/DTD/svg11.dtd">
<svg version="1.1" id="Layer_1" xmlns="http://www.w3.org/2000/svg" xmlns:xlink="http://www.w3.org/1999/xlink" x="0px" y="0px"
	 width="16.676px" height="25.639px" viewBox="0 0 16.676 25.639" enable-background="new 0 0 16.676 25.639" xml:space="preserve">
<path fill="#FFFFFF" d="M8.337,4.84c-1.93,0-3.496,1.566-3.496,3.498c0,1.931,1.566,3.496,3.496,3.496
	c1.932,0,3.497-1.565,3.497-3.496C11.834,6.406,10.269,4.84,8.337,4.84z M9.178,25.639c0.554-6.311,7.497-11.965,7.497-17.451
	C16.675,3.663,12.943,0,8.337,0S0,3.663,0,8.188c0,5.486,7.009,11.141,7.531,17.451H9.178z M8.337,2.688
	c3.121,0,5.648,2.529,5.648,5.649c0,3.119-2.527,5.648-5.648,5.648c-3.119,0-5.648-2.529-5.648-5.648
	C2.689,5.218,5.218,2.688,8.337,2.688z"/>
</svg>
