<?xml version="1.0" encoding="utf-8"?>
<!-- Generator: Adobe Illustrator 16.0.0, SVG Export Plug-In . SVG Version: 6.00 Build 0)  -->
<!DOCTYPE svg PUBLIC "-//W3C//DTD SVG 1.1//EN" "http://www.w3.org/Graphics/SVG/1.1/DTD/svg11.dtd">
<svg version="1.1" id="Layer_1" xmlns="http://www.w3.org/2000/svg" xmlns:xlink="http://www.w3.org/1999/xlink" x="0px" y="0px"
	 width="65.949px" height="44.008px" viewBox="3.959 93.476 65.949 44.008" enable-background="new 3.959 93.476 65.949 44.008"
	 xml:space="preserve">
<path fill="#212B3D" d="M46.881,93.476c-1.176,0-2.27,0.672-3.104,1.93c-2.963,4.467-6.025,9.086-19.888,9.086l-0.75-0.004
	c-4.991-0.057-8.072-0.076-9.96-0.076c-2.123,0-3.005,0-3.377,0.158c-1.514,0.307-5.518,1.748-5.818,8.43
	c-0.02,0.067-0.026,0.14-0.025,0.215c0.002,0.013-0.001,0.17,0,0.185c-0.001,0.071,0.006,0.142,0.025,0.21
	c0.3,6.687,4.305,8.129,5.818,8.436c0.373,0.157,1.256,0.157,3.377,0.157c0.019,0,0.041,0,0.061,0l8.299,13.59
	c0.463,0.719,1.617,1.692,3.343,1.692c0.743,0,1.595-0.183,2.54-0.643c4.838-2.356,4.838-2.356,4.459-3.138l-6.638-11.553
	c0.675,0.016,1.327,0.043,1.948,0.082c0.078,0.025,0.157,0.048,0.244,0.048c0.041,0,0.077-0.018,0.118-0.023
	c10.755,0.76,13.546,4.913,16.249,8.988c0.809,1.219,1.902,1.891,3.08,1.891c0.842,0,1.693-0.355,2.332-0.976
	c0.637-0.615,1-1.419,1-2.202V96.654C50.215,94.991,48.627,93.476,46.881,93.476z M30.157,133.78
	c-0.548,0.277-1.556,0.779-3.406,1.682c-2.62,1.276-3.798-0.32-3.911-0.485l-7.803-12.779c1.883-0.009,4.484-0.03,8.104-0.072
	l0.317-0.001L30.157,133.78z M26.666,120.654c-0.879-0.043-1.799-0.068-2.776-0.068l-0.768,0.004
	c-8.938,0.102-11.728,0.079-12.442,0.056c-0.076-0.032-0.158-0.05-0.246-0.056c-0.191-0.008-4.674-0.297-4.922-7.192
	c-0.002-0.028-0.006-0.061-0.01-0.091c0.004-0.03,0.008-0.061,0.01-0.093c0.248-6.894,4.73-7.183,4.916-7.192
	c0.09-0.003,0.174-0.023,0.25-0.054c0.715-0.025,3.506-0.049,12.444,0.054l0.768,0.004c0.978,0,1.897-0.024,2.776-0.067V120.654z
	 M48.68,129.957c0,0.366-0.199,0.777-0.533,1.102c-0.355,0.346-0.818,0.543-1.266,0.543c-0.654,0-1.277-0.417-1.828-1.245
	c-2.844-4.29-5.799-8.698-16.852-9.595v-14.91c11.053-0.898,14.012-5.311,16.881-9.637c0.52-0.787,1.145-1.205,1.799-1.205
	c0.969,0,1.797,0.904,1.797,1.645v33.303H48.68z M18.229,109.583h-7.396c-0.425,0-0.768,0.343-0.768,0.767
	c0,0.425,0.343,0.769,0.768,0.769h7.396c0.423,0,0.767-0.344,0.767-0.769C18.996,109.926,18.652,109.583,18.229,109.583z
	 M18.229,114.485h-7.396c-0.425,0-0.768,0.344-0.768,0.768c0,0.423,0.343,0.767,0.768,0.767h7.396c0.423,0,0.767-0.344,0.767-0.767
	C18.996,114.829,18.652,114.485,18.229,114.485z M62.846,98.517c-0.334-0.255-0.818-0.194-1.076,0.142
	c-0.256,0.335-0.193,0.816,0.141,1.076c4.047,3.114,6.463,8.096,6.463,13.325c0,5.253-2.318,10.08-6.359,13.244
	c-0.334,0.26-0.393,0.742-0.131,1.077c0.15,0.193,0.375,0.293,0.604,0.293c0.166,0,0.332-0.054,0.473-0.163
	c4.416-3.455,6.949-8.725,6.949-14.451C69.908,107.358,67.27,101.922,62.846,98.517z M56.787,103.239
	c-0.326-0.275-0.809-0.235-1.082,0.087c-0.275,0.323-0.236,0.808,0.088,1.081c2.686,2.284,4.166,5.18,4.166,8.157
	c0,2.962-1.469,5.847-4.131,8.127c-0.322,0.274-0.359,0.76-0.084,1.081c0.15,0.177,0.367,0.269,0.582,0.269
	c0.178,0,0.354-0.061,0.5-0.186c3.008-2.573,4.666-5.873,4.666-9.291C61.492,109.13,59.822,105.818,56.787,103.239z"/>
</svg>
