<?xml version="1.0" encoding="utf-8"?>
<!-- Generator: Adobe Illustrator 16.0.0, SVG Export Plug-In . SVG Version: 6.00 Build 0)  -->
<!DOCTYPE svg PUBLIC "-//W3C//DTD SVG 1.1//EN" "http://www.w3.org/Graphics/SVG/1.1/DTD/svg11.dtd">
<svg version="1.1" id="Layer_1" xmlns="http://www.w3.org/2000/svg" xmlns:xlink="http://www.w3.org/1999/xlink" x="0px" y="0px"
	 width="59.119px" height="74.56px" viewBox="0 0 59.119 74.56" enable-background="new 0 0 59.119 74.56" xml:space="preserve">
<path fill="#FFFFFF" d="M26.316,55.178c-0.138,0.101-0.207,0.182-0.207,0.182c-0.609,0.666,0.386,1.574,0.988,0.913
	c0.223-0.154,0.436-0.073,0.638,0.087c0.767,0.566,1.286,0.84,2.322,0.84c0.619,0,1.096-0.119,1.486-0.301
	c0.359-0.166,1.123-0.891,1.49-0.626c0.609,0.661,1.599-0.247,0.992-0.913c0,0-0.074-0.081-0.214-0.182
	c-1.437-1.06-2.321,0.671-3.755,0.671C28.633,55.849,27.769,54.113,26.316,55.178z M57.452,40.115
	c-0.141-0.074-0.272-0.138-0.407-0.195c1.937-4.959,2.467-10.312,1.634-15.467c-0.45-2.785-1.233-5.255-2.413-7.816
	c-0.013-0.032-0.032-0.062-0.046-0.09c-8.129-17.07-30.823-22.983-46.084-9.72C-0.018,15.66-2.346,29.265,2.267,40.412
	c-2.46,2.089-0.696,7.064,0.454,9.262c1.506,2.867,4.262,4.904,7.413,5.634l0.188,0.039c0.885,4.533,2.75,8.753,5.924,12.142
	c3.328,3.555,8.924,6.645,13.826,6.645c1.37,0,3.599-0.367,6.069-1.363c7.535-3.023,12.084-9.419,13.641-17.232
	c0.014-0.065,0.021-0.125,0.025-0.19l0.05-0.009c3.185-0.686,6.024-2.739,7.565-5.664C58.704,47.223,60.481,41.979,57.452,40.115z
	 M54.981,17.214l0.031,0.075l0.256,0.568l0.031,0.058c0.947,2.173,1.609,4.448,1.983,6.768c0.808,4.978,0.276,10.146-1.633,14.922
	c-1.608-0.057-3.012,0.961-4.108,2.461c0.018-1.854-0.29-3.189-0.75-4.597c-0.654-1.995-1.621-4.158-2.312-8.517
	c-0.496-3.136-2.678-4.923-6.016-4.366c3.608-3.94,5.044-9.789,4.222-17.655C50.124,9.58,53.005,13.051,54.981,17.214z
	 M11.064,7.896c10.291-8.945,24.122-8.728,34.071-2.081c1.717,13.015-2.9,18.712-8.592,21.314
	c-5.405,2.471-10.911,2.067-16.624,2.338C8.506,30.026,8.309,41.68,10.428,49.732C-1.71,38.489-1.701,18.992,11.064,7.896z
	 M57.347,46.294c-1.136,3.9-3.703,6.848-7.76,7.724l-0.475,0.092c-0.225,0.061-0.465,0.215-0.53,0.532l-0.071,0.396l-0.051,0.241
	c-0.583,2.923-1.619,5.763-3.223,8.281c-3.059,4.806-9.328,9.222-15.166,9.222c-1.659,0-5.028-0.641-8.483-2.707
	c-5.527-3.308-8.717-8.681-9.937-14.93l-0.092-0.496c-0.081-0.388-0.356-0.524-0.585-0.554C8.836,53.83,6.48,52.4,5.129,50.832
	c-1.395-1.615-3.859-7.005-2.275-9.09c1.092,2.315,2.492,4.506,4.195,6.506c0.322,0.724,0.82,1.223,1.202,1.336
	c0.95,0.985,1.989,1.918,3.097,2.785c0.682,0.537,1.373,0.051,1.107-0.773c-2.425-7.374-3.776-20.161,7.529-20.711
	c1.738-0.087,4.453,0.003,7.494-0.231c3.805-0.29,7.065-1.062,9.767-2.319c0.445-0.222,1.469-0.741,2.089-1.149
	c0.045-0.029,0.092-0.059,0.14-0.079l0.074-0.047c4.82-2.63,7.152-0.684,7.598,2.109c0.707,4.456,1.693,6.682,2.361,8.725
	c0.625,1.916,0.959,3.664,0.398,7.279c-0.146,0.919,0.983,1.207,1.299,0.336c0.768-2.125,2.89-5.592,5.582-4.219
	C58.267,42.227,57.731,44.981,57.347,46.294z M25.9,41.917c1.42,0.954,2.427-1.212,1.014-2.165
	c-2.445-1.637-5.289-2.556-8.271-2.434c-1.986,0.079-3.586,0.523-5.142,1.405c-1.309,0.74-0.851,1.546,0.604,1.119
	C18.715,38.489,23.896,40.57,25.9,41.917z M54.806,42.816c-1.047,0.59-1.966,1.876-2.647,3.486c-0.146,0.321-0.37,0.848-0.625,1.7
	c-0.712,2.405,0.923,1.802,1.614,0.122c0.227-0.533,0.231-0.804,0.18-1.182c0.62-1.537,1.407-2.604,2.088-2.981
	C56.229,43.501,55.622,42.356,54.806,42.816z M22.616,45.24c0.05-0.692-0.267-1.326-0.772-1.715c1.535,0.4,2.627,1.321,2.99,2.294
	c0.33,0.888,1.654,0.396,1.33-0.49c-0.703-1.904-2.914-3.237-5.422-3.418c-2.525-0.171-4.806,0.858-5.774,2.636
	c-0.444,0.831,0.806,1.505,1.252,0.672c0.528-0.976,1.813-1.774,3.509-1.893c-0.605,0.311-1.031,0.917-1.08,1.639
	c-0.084,1.096,0.748,2.043,1.842,2.123C21.582,47.163,22.539,46.34,22.616,45.24z M38.329,60.176l-0.049,0.016l-0.132,0.042
	c-2.122,0.641-5.481-0.771-8.065,0.442c-2.58-1.213-5.931,0.198-8.053-0.439l-0.132-0.045l-0.053-0.016
	c-0.831-0.312-1.303,0.92-0.497,1.254c0.104,0.047,0.222,0.087,0.368,0.125c0.562,0.209,1.078,0.523,1.501,0.946
	c0.662,0.658,1.243,1.208,1.804,1.667c1.402,1.268,2.931,2.323,4.997,2.363h0.141c1.802-0.035,3.193-0.838,4.445-1.884
	c1.502-1.036,2.178-2.464,3.868-3.094c0.136-0.036,0.258-0.077,0.356-0.122C39.636,61.096,39.163,59.864,38.329,60.176z
	 M29.299,65.875c-0.422-0.064-0.666-0.075-1.093-0.236c-0.497-0.191-0.209-0.934,0.284-0.744c0.341,0.131,0.576,0.143,0.921,0.19
	C29.938,65.162,29.818,65.951,29.299,65.875z M33.923,63.463c-0.855,0.59-1.985,1.021-3.824,1.029
	c-1.85-0.008-2.989-0.439-3.843-1.029c-0.555-0.471-1.068-0.992-1.574-1.482c2.013,0.158,4.29,0.199,5.353,0.203h0.117
	c1.05-0.004,3.33-0.045,5.342-0.203C34.993,62.471,34.472,62.99,33.923,63.463z M39.402,41.91c-2.505,0.18-4.717,1.514-5.429,3.418
	c-0.32,0.888,1.008,1.379,1.332,0.49c0.367-0.973,1.459-1.895,2.994-2.295c-0.51,0.389-0.818,1.024-0.771,1.715
	c0.072,1.099,1.023,1.924,2.123,1.847c1.098-0.081,1.924-1.029,1.846-2.123c-0.053-0.722-0.48-1.329-1.084-1.638
	c1.695,0.117,2.98,0.916,3.51,1.892c0.449,0.833,1.693,0.159,1.244-0.671C44.208,42.769,41.923,41.74,39.402,41.91z M46.641,38.724
	c-1.554-0.882-3.155-1.326-5.138-1.405c-2.99-0.121-5.829,0.799-8.271,2.434c-1.42,0.953-0.406,3.119,1.006,2.165
	c2.006-1.347,7.189-3.429,11.802-2.075C47.485,40.27,47.948,39.464,46.641,38.724z"/>
</svg>
