<?xml version="1.0" encoding="utf-8"?>
<!-- Generator: Adobe Illustrator 16.0.0, SVG Export Plug-In . SVG Version: 6.00 Build 0)  -->
<!DOCTYPE svg PUBLIC "-//W3C//DTD SVG 1.1//EN" "http://www.w3.org/Graphics/SVG/1.1/DTD/svg11.dtd">
<svg version="1.1" id="Layer_1" xmlns="http://www.w3.org/2000/svg" xmlns:xlink="http://www.w3.org/1999/xlink" x="0px" y="0px"
	 width="52.44px" height="60.672px" viewBox="0 0 52.44 60.672" enable-background="new 0 0 52.44 60.672" xml:space="preserve">
<g transform="translate(0,-952.36216)">
	<path fill="#212B3D" d="M42.629,952.362c-5.488,0-9.938,4.45-9.938,9.938s4.451,9.937,9.938,9.937c5.49,0,9.938-4.448,9.938-9.937
		C52.568,956.812,48.119,952.362,42.629,952.362z M41.514,956.725h2.23v1.259c0.398,0.107,0.781,0.274,1.133,0.493l0.871-0.871
		l1.576,1.576l-0.895,0.894c0.221,0.344,0.391,0.717,0.502,1.109h1.271v2.229H46.93c-0.1,0.421-0.266,0.822-0.49,1.19l0.885,0.885
		l-1.576,1.574l-0.996-0.992c-0.312,0.213-0.65,0.381-1.008,0.502v1.301h-2.23v-1.239c-0.414-0.094-0.811-0.249-1.18-0.463
		l-0.893,0.892l-1.578-1.574l0.941-0.94c-0.217-0.352-0.381-0.734-0.486-1.135h-1.264v-2.229h1.262
		c0.104-0.383,0.262-0.746,0.467-1.085l-0.92-0.918l1.578-1.576l0.914,0.915c0.365-0.187,0.756-0.317,1.158-0.39V956.725
		L41.514,956.725z M42.523,960.248c-0.072,0.006-0.139,0.009-0.207,0.021c-0.512,0.077-0.957,0.341-1.271,0.721
		c-0.02,0.025-0.041,0.05-0.061,0.076c-0.256,0.342-0.404,0.768-0.404,1.229c0,0.854,0.512,1.581,1.248,1.89
		c0.062,0.027,0.125,0.049,0.189,0.07c0.193,0.061,0.398,0.092,0.611,0.092h0.105c0.176-0.009,0.346-0.039,0.506-0.089
		c0.064-0.02,0.127-0.043,0.189-0.069c0.734-0.31,1.25-1.038,1.25-1.89c0-1.03-0.75-1.878-1.736-2.027
		c-0.068-0.01-0.139-0.013-0.209-0.02h-0.105l0,0h-0.107L42.523,960.248z"/>
	<path fill="#212B3D" d="M0.128,961.607c0,17.143,0,34.285,0,51.427h43.196v-38.793h-1.393v37.4H1.521v-48.64h3.992v14.002
		c1.627-1.621,3.252-3.243,4.877-4.865l0,0c1.625,1.622,3.251,3.244,4.878,4.865v-14.002h15.424v-1.395H0.128z M6.906,963.002h6.97
		v10.643l-3.484-3.474l0,0l-3.484,3.474L6.906,963.002z"/>
	<path fill="#212B3D" d="M5.527,980.568v1.395h32.398v-1.395H5.527z"/>
	<path fill="#212B3D" d="M5.527,984.608v1.394h32.398v-1.394H5.527z"/>
	<path fill="#212B3D" d="M5.527,988.648v1.393h32.398v-1.393H5.527z"/>
	<path fill="#212B3D" d="M5.527,992.685v1.395h32.398v-1.395H5.527z"/>
	<path fill="#212B3D" d="M5.527,996.724v1.395h32.398v-1.395H5.527z"/>
	<path fill="#212B3D" d="M5.527,1001.439v1.393h16.2v-1.393H5.527z"/>
	<path fill="#212B3D" d="M31.654,1005.386v1.394h6.271v-1.394H31.654z"/>
</g>
</svg>
